HIERARCHY
ROOT Hips
{
  OFFSET -19.6868 92.5399 179.19
  CHANNELS 6 Xposition Yposition Zposition Zrotation Xrotation Yrotation
  JOINT RightUpLeg
  {
    OFFSET -8.9458 -8.66707 0.101652
    CHANNELS 3 Zrotation Xrotation Yrotation
    JOINT RightLeg
    {
      OFFSET 0 -44.4227 1.3727
      CHANNELS 3 Zrotation Xrotation Yrotation
      JOINT RightFoot
      {
        OFFSET 0.253549 -42.0924 -1.46059
        CHANNELS 3 Zrotation Xrotation Yrotation
        JOINT RightToes
        {
          OFFSET 0.04 -4.41509 8.4991
          CHANNELS 3 Zrotation Xrotation Yrotation
          End Site
          {
            OFFSET -0.08 -0.137448 9.77979
          }
        }
      }
    }
  }
  JOINT Spine
  {
    OFFSET 0 11.8905 0
    CHANNELS 3 Zrotation Xrotation Yrotation
    JOINT Spine1
    {
      OFFSET 0 25.6574 0.127663
      CHANNELS 3 Zrotation Xrotation Yrotation
      JOINT HEad
      {
        OFFSET 0 8.73416 0.011341
        CHANNELS 3 Zrotation Xrotation Yrotation
        End Site
        {
          OFFSET -0.29 12.7742 2.51395
        }
      }
      JOINT LeftShoulder1
      {
        OFFSET 8.99 -0.362252 -0.22
        CHANNELS 3 Zrotation Xrotation Yrotation
        JOINT LeftArm
        {
          OFFSET 10.2827 -0.00338 0.322123
          CHANNELS 3 Zrotation Xrotation Yrotation
          JOINT LeftForeArm
          {
            OFFSET 32.7669 0.099144 -1.42434
            CHANNELS 3 Zrotation Xrotation Yrotation
            JOINT LeftHand
            {
              OFFSET 27.5643 0.085362 1.02216
              CHANNELS 3 Zrotation Xrotation Yrotation
              End Site
              {
                OFFSET 16.7443 -0.6 1.50291
              }
            }
          }
        }
      }
      JOINT RightShoulder
      {
        OFFSET -8.99 -0.362252 -0.22
        CHANNELS 3 Zrotation Xrotation Yrotation
        JOINT RightArm
        {
          OFFSET -10.2827 -0.00338 0.322123
          CHANNELS 3 Zrotation Xrotation Yrotation
          JOINT RightForeArm
          {
            OFFSET -32.8971 0.099144 -1.42434
            CHANNELS 3 Zrotation Xrotation Yrotation
            JOINT RightHand
            {
              OFFSET -27.4921 0.085362 1.02216
              CHANNELS 3 Zrotation Xrotation Yrotation
              End Site
              {
                OFFSET -16.6312 -0.6 1.50291
              }
            }
          }
        }
      }
    }
  }
  JOINT LeftUpLeg
  {
    OFFSET 8.9458 -8.66707 0.101652
    CHANNELS 3 Zrotation Xrotation Yrotation
    JOINT LeftLeg
    {
      OFFSET 0 -44.4227 1.3727
      CHANNELS 3 Zrotation Xrotation Yrotation
      JOINT LeftFoot
      {
        OFFSET -0.253549 -42.0924 -1.46059
        CHANNELS 3 Zrotation Xrotation Yrotation
        JOINT LeftToes
        {
          OFFSET -0.04 -4.41509 8.4991
          CHANNELS 3 Zrotation Xrotation Yrotation
          End Site
          {
            OFFSET 0.08 -0.047448 9.77979
          }
        }
      }
    }
  }
}
MOTION
Frames:	11
Frame Time:	0.0166667
0	103.96	0	4.75636	6.74066	153.23	0.544352	8.03392	-9.5183	2.37942	8.60222	-19.5617	1.03807	-7.43287	4.06467	4.62E-02	5.34E-04	0.662642	-0.0211595	-1.46566	0.776096	-0.0224995	-2.92869	1.55217	1.23228	22.5383	17.4647	-1.59E-15	3.18E-15	0.00E+00	-2.80059	-18.4138	-12.2057	0.307331	12.2753	-7.09699	-2.82283	9.92472	6.33371	-1.59E-15	3.18E-15	0.00E+00	0.217156	-6.69976	-5.50458	0.808401	12.8422	2.6292	-2.44926	12.5279	-7.05529	5.11E-01	5.09E+00	-6.53969	3.61994	11.4188	-18.5382	-4.8983	-7.9726	-10.5483	1.39E-14	3.18E-14	6.36E-15
-0.00971	103.961	0.012	4.76219	6.7365	153.194	0.550177	8.01837	-9.50176	2.3709	8.60533	-19.5564	1.03194	-7.43109	4.07048	4.62E-02	5.34E-04	6.63E-01	-0.0215562	-1.46412	0.78083	-0.0231931	-2.92562	1.56163	1.27004	22.5562	17.4345	-1.59E-15	-3.18E-15	-9.54E-15	-2.76745	-18.4285	-12.1921	0.312076	12.2917	-7.10856	-2.84326	9.92853	6.34483	-1.59E-15	-3.18E-15	-9.54E-15	0.184945	-6.64196	-5.43205	0.796652	12.7992	2.6575	-2.47782	12.5222	-7.03224	5.10E-01	5.08126	-6.53E+00	3.62021	11.4248	-18.517	-4.89331	-7.96565	-10.5538	1.67E-14	3.18E-14	6.36E-15
-0.01619	103.963	0.03	4.767	6.7347	153.165	0.55479	8.00773	-9.48844	2.36552	8.60704	-19.5552	1.02706	-7.4297	4.02481	4.62E-02	5.34E-04	6.63E-01	-0.0221747	-1.46345	0.782953	-0.0241738	-2.92412	1.56918	1.31748	22.5705	17.3876	-2.39E-15	3.18E-15	0.00E+00	-2.74015	-18.442	-12.1856	0.316342	12.313	-7.12072	-2.86406	9.93065	6.35159	-2.39E-15	3.18E-15	0.00E+00	0.156668	-6.59868	-5.36085	0.789728	12.7742	2.68149	-2.49907	12.5118	-7.01884	5.08E-01	5.07355	-6.5258	3.62055	11.4272	-18.4991	-4.88285	-7.96245	-10.4582	1.67E-14	3.10E-14	6.36E-15
-0.0301	103.965	0.04	4.77097	6.73381	153.14	0.552052	7.9954	-9.4716	2.3635	8.60863	-19.5556	1.02134	-7.4273	4.07835	4.62E-02	5.34E-04	6.63E-01	-0.0228838	-1.46287	0.784461	-0.0252545	-2.92295	1.57583	1.34887	22.5888	17.3405	7.95E-16	3.18E-15	3.18E-15	-2.70505	-18.433	-12.1885	0.309759	12.3363	-7.13215	-2.87086	9.92792	6.36879	7.95E-16	3.18E-15	3.18E-15	0.121447	-6.55079	-5.29583	0.785699	12.7477	2.69589	-2.50732	12.5081	-7.00913	5.06E-01	5.06E+00	-6.51E+00	3.62118	11.4281	-18.4876	-4.89154	-7.9465	-10.5067	1.59E-14	3.22E-14	3.18E-15
-0.035	103.968	0.059	4.77305	6.73205	153.125	0.549072	7.98464	-9.46685	2.36267	8.61001	-19.5571	1.01286	-7.42518	4.14079	4.62E-02	5.34E-04	6.63E-01	-0.0236493	-1.46245	0.785409	-0.0265692	-2.92216	1.57883	1.3401	22.6102	17.3037	1.59E-15	0.00E+00	9.54E-15	-2.69118	-18.4193	-12.1986	0.294087	12.347	-7.13209	-2.8595	9.91754	6.36298	1.59E-15	0.00E+00	9.54E-15	0.0754142	-6.49625	-5.24026	0.770466	12.7076	2.70749	-2.51027	12.4984	-7.00376	0.501381	5.05444	-6.50E+00	3.62042	11.4277	-18.4823	-4.8839	-7.93383	-10.4765	1.51E-14	3.14E-14	3.18E-15
-0.04714	103.97	0.067	4.77283	6.72726	153.119	0.547776	7.96701	-9.47239	2.36194	8.61109	-19.5591	1.00555	-7.42464	4.12079	4.62E-02	5.34E-04	6.63E-01	-0.0244371	-1.46227	0.785848	-0.0279775	-2.92185	1.58079	1.31906	22.6325	17.2629	7.95E-16	1.59E-15	0.00E+00	-2.68933	-18.4063	-12.2231	0.275804	12.3506	-7.13823	-2.88128	9.92492	6.36475	7.95E-16	1.59E-15	0.00E+00	0.0145088	-6.45305	-5.21745	0.756104	12.6566	2.72245	-2.51208	12.4962	-7.00329	5.10E-01	5.04E+00	-6.49E+00	3.61361	11.4264	-18.4796	-4.88042	-7.91282	-10.5479	1.51E-14	3.14E-14	6.36E-15
-0.04588	103.972	0.089	4.76635	6.71298	153.129	0.553764	7.94441	-9.49076	2.36059	8.6118	-19.5611	0.995212	-7.42589	4.1131	4.62E-02	5.34E-04	6.63E-01	-0.025213	-1.46241	0.785832	-0.0294576	-2.92207	1.58204	1.30314	22.6385	17.2222	2.39E-15	0.00E+00	9.54E-15	-2.68717	-18.4057	-12.2476	0.262394	12.3704	-7.14229	-2.89692	9.93808	6.36943	2.39E-15	0.00E+00	9.54E-15	-0.0493739	-6.42741	-5.2068	0.74962	12.6069	2.73132	-2.51489	12.4908	-7.00168	5.11E-01	5.01E+00	-6.50E+00	3.60712	11.4239	-18.4891	-4.86672	-7.90116	-10.4712	1.47E-14	3.14E-14	3.18E-15
-0.04535	103.974	0.1	4.75751	6.69272	153.15	0.555946	7.9088	-9.50691	2.35896	8.61199	-19.5638	0.985279	-7.43337	4.18605	4.62E-02	5.34E-04	6.63E-01	-0.0259428	-1.46293	0.785415	-0.031068	-2.9229	1.58128	1.29793	22.6334	17.1896	7.95E-16	0.00E+00	9.54E-15	-2.66607	-18.3993	-12.2704	0.261408	12.4001	-7.15568	-2.88276	9.94069	6.37183	7.95E-16	0.00E+00	9.54E-15	-0.0796999	-6.4252	-5.19255	0.73485	12.5969	2.71556	-2.51634	12.4737	-7.01341	5.29E-01	4.98E+00	-6.50E+00	3.59403	11.4213	-18.4965	-4.85955	-7.88124	-10.4964	1.55E-14	3.22E-14	6.36E-15
-0.04514	103.977	0.114	4.74963	6.66081	153.176	0.567989	7.8612	-9.51478	2.35917	8.6108	-19.5809	0.980064	-7.43708	4.102	4.62E-02	5.34E-04	6.63E-01	-0.0265924	-1.46393	0.784648	-0.0329259	-2.92443	1.57611	1.29566	22.627	17.1654	7.95E-16	-1.59E-15	3.18E-15	-2.66182	-18.3919	-12.2983	0.275628	12.4092	-7.17873	-2.83467	9.9391	6.36894	7.95E-16	-1.59E-15	3.18E-15	-0.105511	-6.42736	-5.19074	0.725338	12.6074	2.69478	-2.51634	12.4588	-7.03037	5.44E-01	4.93E+00	-6.50571	3.58716	11.4169	-18.5098	-4.84684	-7.85967	-10.5376	1.55E-14	3.18E-14	1.27E-14
-0.04505	103.98	0.13	4.74243	6.63038	153.203	0.581746	7.81574	-9.51931	2.35975	8.60866	-19.602	0.974933	-7.43965	4.07819	4.62E-02	5.34E-04	6.63E-01	-0.0273848	-1.46547	0.783586	-0.0349651	-2.9284	1.56966	1.2939	22.6243	17.1625	2.39E-15	1.59E-15	6.36E-15	-2.64442	-18.366	-12.3223	0.270326	12.4159	-7.19241	-2.80126	9.92487	6.36466	2.39E-15	1.59E-15	6.36E-15	-0.138013	-6.43087	-5.19714	0.719094	12.6092	2.68608	-2.51711	12.4552	-7.03659	5.60E-01	4.89E+00	-6.51E+00	3.57864	11.4102	-18.5165	-4.83489	-7.84434	-10.4719	1.47E-14	3.14E-14	9.54E-15
-0.04466	103.986	0.141	4.73489	6.60259	153.226	0.594128	7.77526	-9.52021	2.3608	8.60547	-19.6274	0.970471	-7.44149	4.11649	4.62E-02	5.34E-04	6.63E-01	-0.028441	-1.46897	0.782282	-0.0371054	-2.93542	1.56436	1.28997	22.6281	17.1772	7.95E-16	-1.59E-15	-3.18E-15	-2.61564	-18.3599	-12.3437	0.24628	12.4336	-7.20008	-2.80341	9.91606	6.36278	7.95E-16	-1.59E-15	-3.18E-15	-0.178425	-6.41113	-5.21435	0.725053	12.568	2.69007	-2.52081	12.4453	-7.0308	5.81E-01	4.85E+00	-6.50E+00	3.56768	11.4016	-18.5288	-4.82218	-7.82258	-10.4743	1.55E-14	3.14E-14	1.27E-14
